PathFileType	4	(X/Y/Z)	C:\Users\Basilio\Documents\Thesis Gigler\squatting_fais\c3dfiles\077\SLS_back_pre3\markers_experimental.trc
DataRate	CameraRate	NumFrames	NumMarkers	Units	OrigDataRate	OrigDataStartFrame	OrigNumFrames
200.000000	200.000000	4	60	mm	200.000000	818	1636
Frame#	Time	FHD			LBHD			RBHD			C7			T10			CLAV			LSHO			LUUPA			LMUPA			LDUPA			LLEP			LMEP			LRAD			LUL			LRFIN			RSHO			RUPA1			RMUPA			RDUPA			RLEP			RMEP			RRAD			RUL			RUFIN			LASI			RASI			USACR			LSACR			RSACR			LTHI1			LTHI2			LTHI3			LTHI4			LLFC			LMFC			LTIB1			LTIB2			LTIB3			LTIB4			LLMAL			LHEE			LMT1			LMT2			LMT5			RTHI			RTHI2			RTHI3			RTHI4			RLFC			RMFC			RTIB1			RTIB2			RTIB3			RTIB4			RLMAL			RMMAL			RHEE			RMT1			RMT2			RMT5			
		X1	Y1	Z1	X2	Y2	Z2	X3	Y3	Z3	X4	Y4	Z4	X5	Y5	Z5	X6	Y6	Z6	X7	Y7	Z7	X8	Y8	Z8	X9	Y9	Z9	X10	Y10	Z10	X11	Y11	Z11	X12	Y12	Z12	X13	Y13	Z13	X14	Y14	Z14	X15	Y15	Z15	X16	Y16	Z16	X17	Y17	Z17	X18	Y18	Z18	X19	Y19	Z19	X20	Y20	Z20	X21	Y21	Z21	X22	Y22	Z22	X23	Y23	Z23	X24	Y24	Z24	X25	Y25	Z25	X26	Y26	Z26	X27	Y27	Z27	X28	Y28	Z28	X29	Y29	Z29	X30	Y30	Z30	X31	Y31	Z31	X32	Y32	Z32	X33	Y33	Z33	X34	Y34	Z34	X35	Y35	Z35	X36	Y36	Z36	X37	Y37	Z37	X38	Y38	Z38	X39	Y39	Z39	X40	Y40	Z40	X41	Y41	Z41	X42	Y42	Z42	X43	Y43	Z43	X44	Y44	Z44	X45	Y45	Z45	X46	Y46	Z46	X47	Y47	Z47	X48	Y48	Z48	X49	Y49	Z49	X50	Y50	Z50	X51	Y51	Z51	X52	Y52	Z52	X53	Y53	Z53	X54	Y54	Z54	X55	Y55	Z55	X56	Y56	Z56	X57	Y57	Z57	X58	Y58	Z58	X59	Y59	Z59	X60	Y60	Z60	

819	4.09	-71.22328186035158	1575.750732421875	-1157.919189453125	-213.5914306640626	1466.794555664063	-1223.22705078125	-220.2005004882813	1469.537841796875	-1077.639526367188	-268.8070678710938	1364.3623046875	-1150.353759765625	-416.9021911621095	1100.42822265625	-1050.602905273438	-127.6856765747071	1267.151977539063	-1128.7412109375	-144.526596069336	1305.984130859375	-1295.898559570313	7.10825824737549	1238.808349609375	-1394.514282226563	38.23178482055665	1267.375244140625	-1368.081176757813	75.49253082275392	1231.212890625	-1400.456665039063	140.3909149169922	1236.61669921875	-1395.06298828125	140.5525512695313	1166.252685546875	-1365.455932617188	433.5167236328126	1247.57373046875	-1273.588989257813	439.4790649414064	1250.566528320313	-1353.59423828125	532.5257568359376	1265.430419921875	-1280.596313476563	-140.5659790039063	1353.174560546875	-991.370788574219	-5.660893917083741	1328.524291992188	-854.7280883789065	27.36252975463868	1342.703491210938	-888.120300292969	63.08668136596681	1321.070678710938	-843.9178466796877	129.0178527832032	1316.819458007813	-845.5732421875002	126.6514282226563	1238.83447265625	-857.7522583007815	416.2394104003907	1293.496337890625	-930.070495605469	426.8643188476564	1314.32421875	-854.155212402344	511.1744689941407	1317.933227539063	-932.3596191406252	nan	nan	nan	-348.1130371093751	849.8548583984377	-892.4404296875002	-477.0960083007814	1023.147705078125	-1024.383911132813	-503.0047302246095	1006.251037597656	-1053.092407226563	-501.3257446289064	998.5882568359377	-997.9207153320315	-356.5234985351563	720.0838012695314	-1252.069091796875	-284.2226562500001	678.0623168945314	-1260.481201171875	-246.4659729003907	708.9861450195314	-1256.854858398438	-273.1259460449219	618.5852050781251	-1252.140502929688	-164.7378540039063	511.4600219726564	-1229.7099609375	-137.5575866699219	507.8641052246095	-1104.27099609375	-180.8524169921875	306.2009887695313	-1119.872924804688	-237.0712432861329	264.4678039550782	-1176.234252929688	-205.4925537109376	258.3926391601563	-1143.739501953125	-236.9976043701172	196.8410034179688	-1092.960205078125	-336.1559753417969	100.238754272461	-1110.583862304688	-396.1508789062501	81.4420852661133	-1048.0009765625	-182.9538116455078	61.32070541381837	-1073.626586914063	-191.2211303710938	38.79323196411134	-1118.3271484375	-300.3715515136719	125.7816619873047	-1032.446655273438	-445.543670654297	573.4985351562501	-786.6573486328127	-400.8666992187501	522.1527099609376	-770.2237548828127	-367.4440917968751	524.0075073242189	-772.842712402344	-426.4153442382814	443.7570800781251	-782.2611083984377	-440.0133056640626	408.9368896484376	-790.1812744140627	-400.7605285644532	369.9508972167969	-908.4978027343752	-547.7291259765626	364.2678833007813	-858.1043090820315	-621.8373413085939	442.023406982422	-857.950378417969	-623.7810058593751	399.3273925781251	-879.675231933594	-646.8861083984376	404.9805297851564	-934.4328613281252	-809.9131469726565	503.7413024902345	-966.6558227539065	-771.3372802734377	472.8445434570314	-1044.6064453125	-789.5223388671877	572.2803344726564	-1020.1953125	-892.4117431640627	377.1679687500001	-1072.586059570313	-908.299743652344	381.0384826660157	-1035.931762695313	-943.7221679687502	406.9387207031251	-1003.409423828125	
820	4.095	-71.21782684326173	1575.214965820313	-1158.024658203125	-213.0269775390626	1466.249755859375	-1222.781005859375	-219.7218475341797	1468.376586914063	-1076.973754882813	-267.8151550292969	1363.5869140625	-1149.916137695313	-416.5857543945314	1099.84228515625	-1050.1181640625	-127.150619506836	1266.08740234375	-1128.47509765625	-144.2778625488282	1305.345825195313	-1295.716186523438	7.57756567001343	1238.019165039063	-1394.458984375	38.2495346069336	1266.563720703125	-1368.172973632813	75.27384185791017	1230.661499023438	-1400.643676757813	140.3776550292969	1236.131713867188	-1395.619995117188	140.8165435791016	1165.332397460938	-1365.936645507813	433.647674560547	1246.728637695313	-1274.36083984375	439.622772216797	1249.730224609375	-1354.225463867188	532.7374877929689	1264.454345703125	-1281.4501953125	-140.1663208007813	1352.007690429688	-991.2231445312502	-4.997999668121339	1327.570068359375	-854.8335571289065	28.05882835388184	1341.696533203125	-888.288269042969	63.81622314453126	1320.121215820313	-844.0814208984377	129.9656372070313	1316.027099609375	-845.6877441406252	127.4182739257813	1237.862426757813	-858.2799072265627	416.8040771484376	1292.602661132813	-930.6340942382815	427.9927978515626	1313.68798828125	-854.531433105469	511.805145263672	1317.232421875	-933.1194458007815	nan	nan	nan	-347.9670410156251	849.0960083007815	-892.3657836914065	-477.028778076172	1022.576782226563	-1024.105102539063	-502.8799133300782	1005.380493164063	-1052.885375976563	-501.365447998047	997.8000488281252	-997.5953369140627	-356.5033874511719	719.7405395507814	-1251.778686523438	-283.9165039062501	677.7783203125001	-1259.937255859375	-246.3859863281251	708.6626586914064	-1256.4013671875	-274.5041198730469	619.3115234375001	-1252.304809570313	-164.2815093994141	510.7853393554689	-1229.184814453125	-137.460922241211	507.8116149902345	-1103.44287109375	-180.6495208740235	306.1345520019532	-1119.058959960938	-236.5617828369141	264.2576293945313	-1175.679931640625	-205.0794830322266	258.2276611328126	-1143.118041992188	-236.8520507812501	196.8426971435547	-1092.419189453125	-335.3099670410157	100.1747665405274	-1110.51904296875	-396.101043701172	81.40128326416017	-1047.853637695313	-183.0307159423828	61.28587722778322	-1073.51611328125	-191.6251678466797	39.06940460205079	-1118.31640625	-300.4191589355469	125.6878356933594	-1031.974487304688	-445.1958618164064	572.6140747070314	-786.7996215820315	-400.4000854492189	521.4189453125001	-770.8927001953127	-367.1758422851563	523.1148681640626	-773.3162841796877	-426.2444763183595	442.8709716796876	-782.526306152344	-439.7964172363282	408.1084899902345	-790.4654541015627	-400.875213623047	368.8943176269532	-909.0401000976565	-547.7790527343751	363.6191406250001	-858.2629394531252	-621.5844726562501	441.8074645996095	-857.717468261719	-623.7320556640626	398.9814453125001	-879.568786621094	-647.1063842773439	403.9267883300782	-934.2082519531252	-809.9588623046877	503.7503051757814	-965.948913574219	-771.6441040039065	472.769012451172	-1044.212036132813	-789.5794677734377	572.2182617187501	-1019.48193359375	-892.7922363281252	377.3895568847657	-1071.831909179688	-908.5684204101565	381.0975952148438	-1034.618041992188	-944.0502929687502	407.1334838867189	-1002.499328613281	
821	4.1	-70.3585891723633	1573.877685546875	-1157.701904296875	-212.7653350830079	1464.994384765625	-1222.639404296875	-219.1798858642579	1467.569091796875	-1076.810424804688	-267.4276733398438	1362.816528320313	-1149.557250976563	-416.3327941894532	1099.296020507813	-1049.72509765625	-127.1283416748047	1265.363647460938	-1128.486206054688	-144.0757904052735	1304.7119140625	-1295.487060546875	7.647239208221437	1237.347045898438	-1394.509643554688	38.39112091064454	1265.763427734375	-1368.157470703125	75.40591430664064	1229.996337890625	-1400.869262695313	140.4938507080078	1235.439086914063	-1395.829956054688	140.8620910644532	1164.721557617188	-1366.491821289063	433.9133605957032	1245.833862304688	-1275.143676757813	439.8470153808595	1248.858520507813	-1355.119262695313	533.2413330078126	1263.794677734375	-1282.51220703125	-139.3911895751953	1351.29052734375	-991.176940917969	-4.255610466003419	1326.575439453125	-854.9006347656252	28.69588279724122	1340.684204101563	-888.3869628906252	64.49818420410158	1319.054077148438	-844.180603027344	130.6704864501953	1315.011108398438	-846.0275878906252	128.1566314697266	1236.958984375	-858.692810058594	417.5699462890626	1292.208984375	-931.5319824218752	428.7448730468751	1313.027954101563	-855.239196777344	512.5265502929689	1316.682373046875	-934.0511474609377	nan	nan	nan	-347.8780212402344	848.1857910156252	-892.2815551757815	-477.0249633789064	1021.785095214844	-1023.92138671875	-502.8653869628907	1004.693908691406	-1052.61279296875	-501.2738342285157	997.2034912109377	-997.3579101562502	-356.5450134277344	719.2794189453126	-1251.37548828125	-283.1963500976563	677.3873901367189	-1259.41796875	-246.0817413330079	708.2556152343751	-1255.886108398438	-272.6116943359376	618.3223876953126	-1251.221435546875	-163.3811187744141	511.1548461914064	-1227.969970703125	-137.316146850586	507.7834777832032	-1102.536254882813	-180.2748107910157	306.1207885742188	-1118.230712890625	-236.1112365722657	264.2827148437501	-1175.037353515625	-204.7060089111329	257.9706420898438	-1142.519409179688	-236.6125793457032	196.6622314453126	-1091.746459960938	-334.8750305175782	100.1577453613282	-1110.383911132813	-396.1096496582032	81.32070159912111	-1047.738891601563	-182.7176513671875	61.27807617187501	-1073.251953125	-191.5283966064453	39.0362892150879	-1118.222290039063	-300.4863281250001	125.6514739990235	-1031.586791992188	-444.9562988281251	571.7318115234376	-786.926208496094	-400.3190917968751	520.5612182617189	-770.8137207031252	-366.9489135742188	522.0296020507814	-773.9108886718752	-425.8668518066407	442.0480957031251	-782.8948364257815	-439.630096435547	407.3867187500001	-790.7820434570315	-401.0599365234376	368.0952453613282	-909.5611572265627	-547.7935791015626	363.0154113769532	-858.3530883789065	-621.4639282226564	441.4160461425782	-857.6260986328127	-623.7586669921876	398.5621948242189	-879.4853515625002	-647.0595703125001	403.8201904296876	-934.1120605468752	-810.039001464844	503.692352294922	-965.2573242187502	-771.9568481445315	472.8304748535157	-1043.629760742188	-789.6184082031252	572.1473388671876	-1018.781921386719	-893.4162597656252	377.4591064453126	-1071.325317382813	-909.169372558594	381.3945617675782	-1033.878662109375	-944.3721313476565	407.3501281738282	-1001.537902832031	
822	4.105	-69.92050170898439	1572.912719726563	-1157.5107421875	-212.4779052734376	1464.119018554688	-1222.342163085938	-218.6328735351563	1467.0048828125	-1076.879028320313	-267.0447692871094	1361.888305664063	-1149.172485351563	-416.0973205566407	1098.586547851563	-1049.447021484375	-126.6460494995117	1264.117553710938	-1128.256103515625	-143.7582092285157	1303.794677734375	-1295.0869140625	7.550127506256105	1236.739135742188	-1394.7197265625	37.41050338745118	1265.370483398438	-1368.619506835938	75.30975341796876	1229.616943359375	-1401.23681640625	140.8851470947266	1234.69482421875	-1396.11865234375	140.6582336425782	1164.22265625	-1366.831787109375	434.019012451172	1244.994873046875	-1275.979736328125	439.8547668457032	1248.205078125	-1355.9267578125	532.8811035156251	1263.432006835938	-1283.399047851563	-139.029541015625	1350.246704101563	-991.103210449219	-3.495893716812135	1325.594848632813	-854.865661621094	29.42851829528809	1339.773803710938	-888.3476562500002	65.36289215087892	1318.2138671875	-844.3128051757815	131.2613220214844	1314.002807617188	-846.319519042969	128.8548431396485	1235.880981445313	-859.0891113281252	418.0882263183595	1291.38427734375	-932.4150390625002	429.4138793945314	1312.287353515625	-855.812683105469	513.0112915039064	1316.243774414063	-934.9338989257815	nan	nan	nan	-347.8659667968751	847.3645019531252	-892.281921386719	-476.8445739746095	1021.221008300781	-1023.663696289063	-502.9265441894532	1004.243896484375	-1052.231689453125	-501.1044311523439	996.658630371094	-997.135681152344	-356.3951416015626	718.8592529296876	-1250.94921875	-282.8621520996094	677.0924682617189	-1258.843017578125	-245.6327667236329	707.9628906250001	-1255.18310546875	-272.4688720703126	618.1403198242189	-1250.684448242188	-164.0638885498047	511.6470642089845	-1227.628051757813	-137.1768951416016	507.7159423828126	-1101.683349609375	-179.8914031982422	305.9991760253907	-1117.508056640625	-235.4310455322266	264.0790100097657	-1174.609130859375	-204.2380981445313	257.8287048339844	-1141.822387695313	-236.7941284179688	196.9544982910157	-1091.456298828125	-334.6496582031251	100.2517395019532	-1110.1611328125	-396.0743408203126	81.33042144775392	-1047.619995117188	-182.6112670898438	61.04164123535158	-1073.003173828125	-191.5413208007813	39.10734939575196	-1118.1552734375	-300.5145568847657	125.5968322753907	-1031.213256835938	-444.6924743652345	571.0782470703126	-787.172058105469	-400.0529785156251	519.4286499023439	-771.2845458984377	-366.6560974121094	521.1386718750001	-774.1052856445315	-425.7502441406251	441.1882934570314	-783.2734985351565	-439.4381713867189	406.5378723144532	-791.155456542969	-401.1111145019532	367.4723510742188	-910.1199340820315	-547.7565917968751	362.3540954589844	-858.5473632812502	-621.3493041992189	440.9468078613282	-857.5273437500002	-623.7871093750001	398.143280029297	-879.4155273437502	-647.1741333007814	403.7014770507814	-933.9698486328127	-810.0500488281252	503.6074829101564	-964.6118164062502	-772.3391113281252	472.7754821777345	-1043.250244140625	-789.636657714844	572.1669921875001	-1018.043395996094	-893.9763183593752	377.6436767578126	-1070.726440429688	-909.8930664062502	381.6169128417969	-1033.558349609375	-944.7102050781252	407.7017517089845	-1000.7392578125	
